<svg width="86" height="84" viewBox="0 0 86 84" fill="none" xmlns="http://www.w3.org/2000/svg">
<g filter="url(#filter0_d_152_11)">
<path d="M43.0002 49.6671V60.7783" stroke="#00B2FF" stroke-width="4.46551" stroke-linecap="round"/>
<path d="M36.333 60.7794H49.6664" stroke="#00B2FF" stroke-width="4.46551" stroke-linecap="round"/>
<path fillRule="evenodd" clipRule="evenodd" d="M42.9999 49.6669C48.7142 49.6669 53.4762 47.6916 54.4287 41.7655L56.0849 25.4466C56.218 24.1373 55.1902 23 53.8742 23H32.1257C30.8097 23 29.7819 24.1373 29.9148 25.4466L31.5712 41.7655C32.5236 47.6916 37.2856 49.6669 42.9999 49.6669Z" stroke="#00B2FF" stroke-width="4.46551" stroke-linecap="round"/>
<path d="M56.3333 29.6666H61.7878C62.4573 29.6666 63 30.2093 63 30.8787V34.1111C63 39.0203 59.0202 43.0001 54.111 43.0001" stroke="#00B2FF" stroke-width="4.46551" stroke-linecap="round"/>
<path d="M29.6667 29.6666H24.2121C23.5427 29.6666 23 30.2093 23 30.8787V34.1111C23 39.0203 26.9797 43.0001 31.889 43.0001" stroke="#00B2FF" stroke-width="4.46551" stroke-linecap="round"/>
</g>
<defs>
<filter id="filter0_d_152_11" x="0.767242" y="0.767212" width="84.4655" height="82.245" filterUnits="userSpaceOnUse" color-interpolation-filters="sRGB">
<feFlood flood-opacity="0" result="BackgroundImageFix"/>
<feColorMatrix in="SourceAlpha" type="matrix" values="0 0 0 0 0 0 0 0 0 0 0 0 0 0 0 0 0 0 127 0" result="hardAlpha"/>
<feOffset/>
<feGaussianBlur stdDeviation="10"/>
<feComposite in2="hardAlpha" operator="out"/>
<feColorMatrix type="matrix" values="0 0 0 0 0.0117647 0 0 0 0 0.701961 0 0 0 0 1 0 0 0 1 0"/>
<feBlend mode="normal" in2="BackgroundImageFix" result="effect1_dropShadow_152_11"/>
<feBlend mode="normal" in="SourceGraphic" in2="effect1_dropShadow_152_11" result="shape"/>
</filter>
</defs>
</svg>
