<svg xmlns="http://www.w3.org/2000/svg" width="38" height="35" viewBox="0 0 38 35" fill="none">
  <g filter="url(#filter0_d_68_20)">
    <path d="M29.5 25.125C29.5 23.9648 29.0397 22.8518 28.219 22.031C27.3982 21.2103 26.2852 20.75 25.125 20.75C21.5322 20.75 16.4677 20.75 12.875 20.75C11.7147 20.75 10.6018 21.2103 9.781 22.031C8.96025 22.8518 8.5 23.9648 8.5 25.125V29.5H29.5C29.5 29.5 29.5 28.0072 29.5 25.125ZM26 13.75H29.5C30.4275 13.75 31.3182 14.1193 31.9745 14.7755C32.6307 15.4318 33 16.3225 33 17.25V22.5H30.6602C29.6768 20.4315 27.568 19 25.125 19H23.6287C25.083 17.7172 26 15.8395 26 13.75ZM7.33975 22.5H5C5 22.5 5 19.686 5 17.25C5 16.3225 5.36925 15.4318 6.0255 14.7755C6.68175 14.1193 7.5725 13.75 8.5 13.75H12C12 15.8395 12.917 17.7172 14.3713 19H12.875C10.432 19 8.32325 20.4298 7.33975 22.5ZM19 8.5C21.898 8.5 24.25 10.852 24.25 13.75C24.25 16.648 21.898 19 19 19C16.102 19 13.75 16.648 13.75 13.75C13.75 10.852 16.102 8.5 19 8.5ZM12.2222 11.993C12.1487 11.9982 12.0753 12 12 12C10.068 12 8.5 10.432 8.5 8.5C8.5 6.568 10.068 5 12 5C13.6695 5 15.0677 6.1725 15.416 7.737C13.8568 8.66975 12.6895 10.1905 12.2222 11.993ZM22.584 7.737C22.9323 6.1725 24.3305 5 26 5C27.932 5 29.5 6.568 29.5 8.5C29.5 10.432 27.932 12 26 12C25.9247 12 25.8512 11.9982 25.7778 11.993C25.3105 10.1905 24.1433 8.66975 22.584 7.737Z" fill="white"/>
  </g>
  <defs>
    <filter id="filter0_d_68_20" x="0" y="0" width="38" height="34.5" filterUnits="userSpaceOnUse" color-interpolation-filters="sRGB">
      <feFlood flood-opacity="0" result="BackgroundImageFix"/>
      <feColorMatrix in="SourceAlpha" type="matrix" values="0 0 0 0 0 0 0 0 0 0 0 0 0 0 0 0 0 0 127 0" result="hardAlpha"/>
      <feOffset/>
      <feGaussianBlur stdDeviation="2.5"/>
      <feComposite in2="hardAlpha" operator="out"/>
      <feColorMatrix type="matrix" values="0 0 0 0 1 0 0 0 0 1 0 0 0 0 1 0 0 0 1 0"/>
      <feBlend mode="normal" in2="BackgroundImageFix" result="effect1_dropShadow_68_20"/>
      <feBlend mode="normal" in="SourceGraphic" in2="effect1_dropShadow_68_20" result="shape"/>
    </filter>
  </defs>
</svg>