
<svg xmlns="http://www.w3.org/2000/svg" xmlns:xlink="http://www.w3.org/1999/xlink" xmlns:serif="http://www.serif.com/" viewBox="0 0 32 40" version="1.1" xml:space="preserve" style="" x="0px" y="0px" fillRule="evenodd" clip-rule="evenodd" stroke-linejoin="round" stroke-miterlimit="2"><path d="M11.966,17.954c-2.583,1.298 -4.459,3.804 -4.887,6.774c-0.001,0.004 -0.002,0.009 -0.002,0.013c-0.075,0.571 0.1,1.146 0.48,1.579c0.38,0.432 0.928,0.68 1.504,0.68l13.882,-0.01c0.569,-0 1.114,-0.247 1.492,-0.677c0.377,-0.43 0.552,-1.003 0.478,-1.57c-0.001,-0.004 -0.001,-0.007 -0.002,-0.011c-0.42,-2.972 -2.294,-5.479 -4.877,-6.778c0.607,-0.828 0.966,-1.849 0.966,-2.954c-0,-2.76 -2.24,-5 -5,-5c-2.76,0 -5,2.24 -5,5c-0,1.104 0.359,2.126 0.966,2.954Zm1.674,1.454c-2.407,0.862 -4.207,3.003 -4.58,5.592c0,0 0,0 0,0c2.903,0 10.955,0 13.867,-0.01c-0.374,-2.59 -2.169,-4.722 -4.567,-5.582c-0.703,0.378 -1.507,0.592 -2.36,0.592c-0.853,0 -1.657,-0.214 -2.36,-0.592Zm-7.355,2.592l-3.231,-0c-0.57,0 -1.114,-0.242 -1.493,-0.667c-0.38,-0.425 -0.561,-0.992 -0.496,-1.559c0,-0.003 0,-0.007 0.001,-0.01c0.356,-2.866 1.903,-5.283 4.042,-6.626c-0.693,-0.858 -1.108,-1.95 -1.108,-3.138c-0,-2.76 2.24,-5 5,-5c2.367,0 4.352,1.648 4.869,3.858c-0.683,0.237 -1.314,0.585 -1.871,1.022c-0.064,-1.6 -1.382,-2.88 -2.998,-2.88c-1.656,0 -3,1.344 -3,3c-0,1.656 1.344,3 3,3c0.297,0 0.584,-0.043 0.856,-0.124c-0.228,0.658 -0.353,1.364 -0.356,2.099c-0.164,0.017 -0.331,0.025 -0.5,0.025c-0.792,0 -1.541,-0.184 -2.207,-0.513c-1.981,0.913 -3.431,3.018 -3.741,5.513l4.33,-0c-0.434,0.621 -0.803,1.291 -1.097,2Zm11.903,-13.122c0.509,-2.22 2.499,-3.878 4.873,-3.878c2.759,0 5,2.24 5,5c-0,1.188 -0.415,2.28 -1.108,3.138c2.139,1.344 3.684,3.762 4.033,6.629c0.001,0.003 0.001,0.006 0.001,0.008c0.064,0.564 -0.115,1.128 -0.493,1.552c-0.378,0.423 -0.918,0.665 -1.483,0.665c-0.795,0.002 -1.974,0.004 -3.303,0.005c-0.293,-0.709 -0.661,-1.378 -1.095,-1.999c1.758,-0.001 3.378,-0.003 4.386,-0.006c-0.31,-2.495 -1.756,-4.593 -3.732,-5.505c-0.665,0.329 -1.414,0.513 -2.206,0.513c-0.19,0 -0.377,-0.011 -0.561,-0.031c-0.004,-0.741 -0.131,-1.452 -0.363,-2.114c0.291,0.094 0.602,0.145 0.924,0.145c1.656,0 3,-1.344 3,-3c-0,-1.656 -1.344,-3 -3,-3c-1.631,0 -2.96,1.305 -2.999,2.927c-0.557,-0.447 -1.19,-0.804 -1.874,-1.049Zm-2.188,3.122c1.656,0 3,1.344 3,3c-0,1.656 -1.344,3 -3,3c-1.656,0 -3,-1.344 -3,-3c-0,-1.656 1.344,-3 3,-3Z"/><text x="0" y="47" fill="#ffffff" font-size="5px" font-weight="bold" font-family="'Helvetica Neue', Helvetica, Arial-Unicode, Arial, Sans-serif"></text><text x="0" y="52" fill="white" font-size="5px" font-weight="bold" font-family="'Helvetica Neue', Helvetica, Arial-Unicode, Arial, Sans-serif"></text></svg>