<svg width="40" height="20" viewBox="0 0 40 20" fill="none" xmlns="http://www.w3.org/2000/svg">
<path d="M39.787 12.6737C39.8879 12.8486 39.9535 13.0416 39.9798 13.2418C40.0062 13.442 39.9929 13.6454 39.9406 13.8405C39.8884 14.0355 39.7982 14.2184 39.6753 14.3785C39.5524 14.5387 39.3991 14.6732 39.2242 14.7741C39.0494 14.8751 38.8563 14.9406 38.6561 14.967C38.4559 14.9934 38.2525 14.98 38.0575 14.9278C37.8624 14.8755 37.6796 14.7854 37.5194 14.6624C37.3592 14.5395 37.2248 14.3863 37.1238 14.2114L33.5906 8.09178C31.5089 9.48596 29.2197 10.542 26.8079 11.2206L27.9252 17.5567C27.996 17.9583 27.9043 18.3716 27.6704 18.7057C27.4365 19.0397 27.0795 19.2673 26.6779 19.3382C26.5891 19.3537 26.4991 19.3616 26.4089 19.3616C26.0477 19.3611 25.6983 19.2335 25.4217 19.0011C25.1452 18.7688 24.9592 18.4465 24.8964 18.0909L23.7973 11.8581C21.2807 12.2257 18.7239 12.2248 16.2075 11.8554L15.1086 18.0882C15.0458 18.444 14.8599 18.7662 14.5833 18.9986C14.3068 19.231 13.9573 19.3586 13.5961 19.3592C13.506 19.3591 13.416 19.3513 13.3273 19.3357C12.9257 19.2649 12.5686 19.0374 12.3347 18.7034C12.1007 18.3693 12.0091 17.956 12.0798 17.5544L13.1974 11.2157C10.7885 10.536 8.50222 9.4798 6.42311 8.08624L2.86916 14.2418C2.7682 14.4167 2.63378 14.5699 2.47358 14.6928C2.31339 14.8158 2.13055 14.9059 1.93551 14.9582C1.74047 15.0104 1.53704 15.0238 1.33685 14.9974C1.13666 14.971 0.943622 14.9055 0.768757 14.8045C0.593893 14.7036 0.440627 14.5692 0.317711 14.409C0.194795 14.2488 0.104635 14.0659 0.0523805 13.8709C0.000125604 13.6758 -0.0132014 13.4724 0.0131603 13.2722C0.0395219 13.072 0.105056 12.879 0.206021 12.7041L3.95358 6.21324C2.64651 5.08838 1.4446 3.84681 0.362754 2.50393C0.106475 2.18671 -0.0132955 1.78069 0.0297908 1.37517C0.0728771 0.969648 0.275291 0.597854 0.592503 0.341575C0.909715 0.0852957 1.31574 -0.034475 1.72126 0.00861135C2.12678 0.0516977 2.49858 0.254111 2.75485 0.571323C3.95565 2.06553 5.32604 3.4151 6.83845 4.59288C6.85051 4.60151 6.86154 4.61099 6.87327 4.61991C10.6261 7.5396 15.2564 9.10369 20.011 9.05779C24.7645 9.10366 29.3937 7.5403 33.1461 4.62188C33.1561 4.61428 33.1656 4.60621 33.1759 4.59889C34.6913 3.41966 36.0642 2.06804 37.267 0.571323C37.5234 0.254454 37.8951 0.0523527 38.3005 0.00943696C38.7058 -0.0334787 39.1116 0.0863044 39.4287 0.342459C39.7457 0.598614 39.9481 0.970176 39.9913 1.37548C40.0345 1.78079 39.9151 2.18667 39.6591 2.50392C38.5752 3.84944 37.3707 5.09325 36.0607 6.21989L39.787 12.6737Z" fill="white"/>
</svg>
