<svg xmlns="http://www.w3.org/2000/svg" width="78" height="77" viewBox="0 0 78 77" fill="none">
  <g filter="url(#filter0_d_73_24)">
    <path d="M39 37.6C39.7732 37.6 40.4 36.9732 40.4 36.2C40.4 35.4269 39.7732 34.8 39 34.8C38.2268 34.8 37.6 35.4269 37.6 36.2C37.6 36.9732 38.2268 37.6 39 37.6Z" fill="rgb(190 242 100"/>
    <path d="M44.6 37.6C45.3731 37.6 46 36.9732 46 36.2C46 35.4269 45.3731 34.8 44.6 34.8C43.8268 34.8 43.2 35.4269 43.2 36.2C43.2 36.9732 43.8268 37.6 44.6 37.6Z" fill="rgb(190 242 100"/>
    <path d="M33.4 37.6C34.1732 37.6 34.8 36.9732 34.8 36.2C34.8 35.4269 34.1732 34.8 33.4 34.8C32.6268 34.8 32 35.4269 32 36.2C32 36.9732 32.6268 37.6 33.4 37.6Z" fill="rgb(190 242 100"/>
    <path d="M48.8 25H29.2C28.0861 25 27.0178 25.4425 26.2302 26.2302C25.4425 27.0178 25 28.0861 25 29.2V50.2C25.0004 50.4481 25.0668 50.6916 25.1922 50.9056C25.3177 51.1196 25.4977 51.2964 25.714 51.418C25.9232 51.5366 26.1595 51.5993 26.4 51.6C26.6513 51.5999 26.8979 51.5322 27.114 51.404L33.4 47.596C33.6324 47.4577 33.8998 47.3896 34.17 47.4H48.8C49.9139 47.4 50.9822 46.9575 51.7698 46.1698C52.5575 45.3822 53 44.3139 53 43.2V29.2C53 28.0861 52.5575 27.0178 51.7698 26.2302C50.9822 25.4425 49.9139 25 48.8 25ZM50.2 43.2C50.2 43.5713 50.0525 43.9274 49.7899 44.19C49.5274 44.4525 49.1713 44.6 48.8 44.6H34.17C33.4054 44.5994 32.655 44.8075 32 45.202L27.8 47.722V29.2C27.8 28.8287 27.9475 28.4726 28.2101 28.2101C28.4726 27.9475 28.8287 27.8 29.2 27.8H48.8C49.1713 27.8 49.5274 27.9475 49.7899 28.2101C50.0525 28.4726 50.2 28.8287 50.2 29.2V43.2Z" fill="rgb(190 242 100"/>
  </g>
  <defs>
    <filter id="filter0_d_73_24" x="0" y="0" width="78" height="76.6" filterUnits="userSpaceOnUse" color-interpolation-filters="sRGB">
      <feFlood flood-opacity="0" result="BackgroundImageFix"/>
      <feColorMatrix in="SourceAlpha" type="matrix" values="0 0 0 0 0 0 0 0 0 0 0 0 0 0 0 0 0 0 127 0" result="hardAlpha"/>
      <feOffset/>
      <feGaussianBlur stdDeviation="12.5"/>
      <feComposite in2="hardAlpha" operator="out"/>
      <feColorMatrix type="matrix" values="0 0 0 0 1 0 0 0 0 1 0 0 0 0 1 0 0 0 1 0"/>
      <feBlend mode="normal" in2="BackgroundImageFix" result="effect1_dropShadow_73_24"/>
      <feBlend mode="normal" in="SourceGraphic" in2="effect1_dropShadow_73_24" result="shape"/>
    </filter>
  </defs>
</svg>