<svg width="178" height="170" viewBox="0 0 178 170" fill="none" xmlns="http://www.w3.org/2000/svg">
<g filter="url(#filter0_d_844_312)">
<path d="M89.0005 110.721V147.271" stroke="white" stroke-width="4.46551" stroke-linecap="round"/>
<path d="M67.0691 147.275H110.929" stroke="white" stroke-width="4.46551" stroke-linecap="round"/>
<path  fillRule="evenodd" clip-rule="evenodd" d="M88.9997 110.72C107.797 110.72 123.461 104.222 126.594 84.7286L132.043 31.0482C132.48 26.7413 129.1 23 124.771 23H53.2293C48.9002 23 45.5195 26.7413 45.9566 31.0482L51.4054 84.7286C54.5383 104.222 70.2026 110.72 88.9997 110.72Z" stroke="white" stroke-width="4.46551" stroke-linecap="round"/>
<path d="M132.859 44.9302H150.802C153.004 44.9302 154.789 46.7154 154.789 48.9174V59.5502C154.789 75.6987 141.698 88.7902 125.549 88.7902" stroke="white" stroke-width="4.46551" stroke-linecap="round"/>
<path d="M45.1405 44.9302H27.1978C24.9957 44.9302 23.2105 46.7154 23.2105 48.9174V59.5502C23.2105 75.6987 36.3017 88.7902 52.4505 88.7902" stroke="white" stroke-width="4.46551" stroke-linecap="round"/>
</g>
<defs>
<filter id="filter0_d_844_312" x="0.977768" y="0.767334" width="176.044" height="168.74" filterUnits="userSpaceOnUse" color-interpolation-filters="sRGB">
<feFlood flood-opacity="0" result="BackgroundImageFix"/>
<feColorMatrix in="SourceAlpha" type="matrix" values="0 0 0 0 0 0 0 0 0 0 0 0 0 0 0 0 0 0 127 0" result="hardAlpha"/>
<feOffset/>
<feGaussianBlur stdDeviation="10"/>
<feComposite in2="hardAlpha" operator="out"/>
<feColorMatrix type="matrix" values="0 0 0 0 1 0 0 0 0 1 0 0 0 0 1 0 0 0 1 0"/>
<feBlend mode="normal" in2="BackgroundImageFix" result="effect1_dropShadow_844_312"/>
<feBlend mode="normal" in="SourceGraphic" in2="effect1_dropShadow_844_312" result="shape"/>
</filter>
</defs>
</svg>
