<svg xmlns="http://www.w3.org/2000/svg" width="65" height="65" viewBox="0 0 81 76" fill="none">
  <g filter="url(#filter0_d_220_57)">
    <path d="M54.5156 48.1413L48.8507 42.4931C50.6785 40.1646 51.6702 37.2892 51.6665 34.329C51.6665 31.6928 50.8848 29.1158 49.4202 26.9238C47.9555 24.7319 45.8738 23.0235 43.4383 22.0146C41.0027 21.0058 38.3227 20.7418 35.7371 21.2561C33.1515 21.7704 30.7765 23.0399 28.9124 24.904C27.0483 26.7681 25.7788 29.1431 25.2645 31.7287C24.7502 34.3143 25.0142 36.9943 26.023 39.4298C27.0319 41.8654 28.7403 43.9471 30.9322 45.4117C33.1242 46.8763 35.7012 47.6581 38.3375 47.6581C41.2976 47.6618 44.173 46.67 46.5015 44.8423L52.1497 50.5072C52.3046 50.6633 52.4888 50.7873 52.6919 50.8719C52.8949 50.9565 53.1127 51 53.3326 51C53.5526 51 53.7704 50.9565 53.9734 50.8719C54.1764 50.7873 54.3607 50.6633 54.5156 50.5072C54.6717 50.3523 54.7957 50.168 54.8803 49.965C54.9649 49.7619 55.0084 49.5442 55.0084 49.3242C55.0084 49.1043 54.9649 48.8865 54.8803 48.6835C54.7957 48.4804 54.6717 48.2961 54.5156 48.1413ZM28.3407 34.329C28.3407 32.3519 28.927 30.4191 30.0254 28.7751C31.1239 27.1312 32.6852 25.8499 34.5119 25.0932C36.3385 24.3366 38.3486 24.1386 40.2877 24.5244C42.2269 24.9101 44.0082 25.8622 45.4063 27.2603C46.8043 28.6583 47.7564 30.4396 48.1422 32.3788C48.5279 34.318 48.3299 36.328 47.5733 38.1546C46.8167 39.9813 45.5353 41.5426 43.8914 42.6411C42.2474 43.7395 40.3146 44.3258 38.3375 44.3258C35.6862 44.3258 33.1434 43.2726 31.2687 41.3978C29.3939 39.5231 28.3407 36.9804 28.3407 34.329Z" fill="white"/>
  </g>
  <defs>
    <filter id="filter0_d_220_57" x="0.00842285" y="-4" width="80" height="80" filterUnits="userSpaceOnUse" color-interpolation-filters="sRGB">
      <feFlood flood-opacity="0" result="BackgroundImageFix"/>
      <feColorMatrix in="SourceAlpha" type="matrix" values="0 0 0 0 0 0 0 0 0 0 0 0 0 0 0 0 0 0 127 0" result="hardAlpha"/>
      <feOffset/>
      <feGaussianBlur stdDeviation="12.5"/>
      <feComposite in2="hardAlpha" operator="out"/>
      <feColorMatrix type="matrix" values="0 0 0 0 1 0 0 0 0 1 0 0 0 0 1 0 0 0 1 0"/>
      <feBlend mode="normal" in2="BackgroundImageFix" result="effect1_dropShadow_220_57"/>
      <feBlend mode="normal" in="SourceGraphic" in2="effect1_dropShadow_220_57" result="shape"/>
    </filter>
  </defs>
</svg>