<svg xmlns="http://www.w3.org/2000/svg" width="38" height="33" viewBox="0 0 38 33" fill="none">
  <g filter="url(#filter0_d_75_43)">
    <path d="M27.4066 13.352L27.0479 13.9777C26.9166 14.2096 26.6366 14.3059 26.3872 14.214C25.8709 14.0215 25.3983 13.7458 24.9827 13.4002C24.7814 13.2339 24.7289 12.9407 24.8602 12.7132L25.219 12.0875C24.9171 11.7375 24.6808 11.3306 24.5233 10.8887H23.8013C23.5388 10.8887 23.3113 10.7006 23.2675 10.438C23.18 9.91299 23.1757 9.36169 23.2675 8.81477C23.3113 8.55225 23.5388 8.35974 23.8013 8.35974H24.5233C24.6808 7.91782 24.9171 7.51092 25.219 7.16089L24.8602 6.53521C24.7289 6.30769 24.777 6.01454 24.9827 5.84828C25.3983 5.50262 25.8753 5.22698 26.3872 5.03446C26.6366 4.94258 26.9166 5.03884 27.0479 5.27073L27.4066 5.89641C27.866 5.81328 28.3342 5.81328 28.7936 5.89641L29.1524 5.27073C29.2837 5.03884 29.5637 4.94258 29.8131 5.03446C30.3294 5.22698 30.8019 5.50262 31.2176 5.84828C31.4188 6.01454 31.4713 6.30769 31.3401 6.53521L30.9813 7.16089C31.2832 7.51092 31.5195 7.91782 31.677 8.35974H32.3989C32.6614 8.35974 32.889 8.54788 32.9327 8.8104C33.0202 9.33544 33.0246 9.88674 32.9327 10.4337C32.889 10.6962 32.6614 10.8887 32.3989 10.8887H31.677C31.5195 11.3306 31.2832 11.7375 30.9813 12.0875L31.3401 12.7132C31.4713 12.9407 31.4232 13.2339 31.2176 13.4002C30.8019 13.7458 30.325 14.0215 29.8131 14.214C29.5637 14.3059 29.2837 14.2096 29.1524 13.9777L28.7936 13.352C28.3386 13.4352 27.866 13.4352 27.4066 13.352ZM26.9472 10.7793C28.6317 12.0744 30.5525 10.1536 29.2574 8.46912C27.5729 7.16964 25.6521 9.0948 26.9472 10.7793ZM21.9024 17.513L23.3769 18.2481C23.8188 18.5018 24.0114 19.04 23.8363 19.5213C23.4469 20.5801 22.6812 21.5514 21.9724 22.4003C21.6487 22.7897 21.0886 22.8859 20.6467 22.6322L19.3735 21.8971C18.6734 22.4965 17.8596 22.9734 16.9714 23.2841V24.7542C16.9714 25.2618 16.6082 25.6993 16.1095 25.7868C15.0331 25.9706 13.9043 25.9793 12.7886 25.7868C12.2854 25.6993 11.9135 25.2661 11.9135 24.7542V23.2841C11.0253 22.9691 10.2115 22.4965 9.51141 21.8971L8.23818 22.6278C7.80064 22.8816 7.23622 22.7853 6.91244 22.3959C6.20364 21.5471 5.45545 20.5757 5.06604 19.5213C4.89103 19.0444 5.08354 18.5062 5.52545 18.2481L6.98245 17.513C6.81181 16.5985 6.81181 15.6578 6.98245 14.739L5.52545 13.9996C5.08354 13.7458 4.88665 13.2076 5.06604 12.7307C5.45545 11.6719 6.20364 10.7006 6.91244 9.85173C7.23622 9.46233 7.79627 9.36607 8.23818 9.61984L9.51141 10.3549C10.2115 9.75548 11.0253 9.27856 11.9135 8.96791V7.49341C11.9135 6.99025 12.2723 6.55271 12.7711 6.4652C13.8474 6.28144 14.9806 6.27269 16.0963 6.46083C16.5995 6.54834 16.9714 6.9815 16.9714 7.49341V8.96354C17.8596 9.27856 18.6734 9.7511 19.3735 10.3505L20.6467 9.61546C21.0842 9.36169 21.6487 9.45795 21.9724 9.84736C22.6812 10.6962 23.4251 11.6675 23.8145 12.7263C23.9895 13.2033 23.8188 13.7414 23.3769 13.9996L21.9024 14.7346C22.0731 15.6535 22.0731 16.5942 21.9024 17.513ZM16.757 18.4362C19.3472 15.0672 15.5013 11.2212 12.1322 13.8114C9.54204 17.1805 13.388 21.0264 16.757 18.4362ZM27.4066 26.43L27.0479 27.0557C26.9166 27.2875 26.6366 27.3838 26.3872 27.2919C25.8709 27.0994 25.3983 26.8238 24.9827 26.4781C24.7814 26.3118 24.7289 26.0187 24.8602 25.7912L25.219 25.1655C24.9171 24.8155 24.6808 24.4086 24.5233 23.9666H23.8013C23.5388 23.9666 23.3113 23.7785 23.2675 23.516C23.18 22.9909 23.1757 22.4396 23.2675 21.8927C23.3113 21.6302 23.5388 21.4377 23.8013 21.4377H24.5233C24.6808 20.9958 24.9171 20.5889 25.219 20.2388L24.8602 19.6132C24.7289 19.3856 24.777 19.0925 24.9827 18.9262C25.3983 18.5806 25.8753 18.3049 26.3872 18.1124C26.6366 18.0205 26.9166 18.1168 27.0479 18.3487L27.4066 18.9744C27.866 18.8912 28.3342 18.8912 28.7936 18.9744L29.1524 18.3487C29.2837 18.1168 29.5637 18.0205 29.8131 18.1124C30.3294 18.3049 30.8019 18.5806 31.2176 18.9262C31.4188 19.0925 31.4713 19.3856 31.3401 19.6132L30.9813 20.2388C31.2832 20.5889 31.5195 20.9958 31.677 21.4377H32.3989C32.6614 21.4377 32.889 21.6258 32.9327 21.8884C33.0202 22.4134 33.0246 22.9647 32.9327 23.5116C32.889 23.7741 32.6614 23.9666 32.3989 23.9666H31.677C31.5195 24.4086 31.2832 24.8155 30.9813 25.1655L31.3401 25.7912C31.4713 26.0187 31.4232 26.3118 31.2176 26.4781C30.8019 26.8238 30.325 27.0994 29.8131 27.2919C29.5637 27.3838 29.2837 27.2875 29.1524 27.0557L28.7936 26.43C28.3386 26.5131 27.866 26.5131 27.4066 26.43ZM26.9472 23.8529C28.6317 25.148 30.5525 23.2272 29.2574 21.5427C27.5729 20.2476 25.6521 22.1684 26.9472 23.8529Z" fill="white"/>
  </g>
  <defs>
    <filter id="filter0_d_75_43" x="0" y="0" width="38" height="32.3264" filterUnits="userSpaceOnUse" color-interpolation-filters="sRGB">
      <feFlood flood-opacity="0" result="BackgroundImageFix"/>
      <feColorMatrix in="SourceAlpha" type="matrix" values="0 0 0 0 0 0 0 0 0 0 0 0 0 0 0 0 0 0 127 0" result="hardAlpha"/>
      <feOffset/>
      <feGaussianBlur stdDeviation="2.5"/>
      <feComposite in2="hardAlpha" operator="out"/>
      <feColorMatrix type="matrix" values="0 0 0 0 1 0 0 0 0 1 0 0 0 0 1 0 0 0 1 0"/>
      <feBlend mode="normal" in2="BackgroundImageFix" result="effect1_dropShadow_75_43"/>
      <feBlend mode="normal" in="SourceGraphic" in2="effect1_dropShadow_75_43" result="shape"/>
    </filter>
  </defs>
</svg>