<svg xmlns="http://www.w3.org/2000/svg" width="44" height="44" viewBox="0 0 44 44" fill="none">
  <path d="M23.0526 39.8947H3.26316C2.56554 39.8947 2 39.3293 2 38.6316V3.26316C2 2.56554 2.56554 2 3.26316 2H38.6316C39.3293 2 39.8947 2.56554 39.8947 3.26316V23.0526" stroke="white" stroke-width="3" stroke-linecap="round" stroke-linejoin="round"></path>
  <path d="M2 29.3684L16.7368 23.0526L28.3158 28.3158" stroke="white" stroke-width="3" stroke-linecap="round" stroke-linejoin="round"></path>
  <path d="M29.3682 16.7368C27.0428 16.7368 25.1577 14.8517 25.1577 12.5263C25.1577 10.2009 27.0428 8.31577 29.3682 8.31577C31.6937 8.31577 33.5788 10.2009 33.5788 12.5263C33.5788 14.8517 31.6937 16.7368 29.3682 16.7368Z" stroke="white" stroke-width="3" stroke-linecap="round" stroke-linejoin="round"></path>
  <path d="M29.3684 35.6842H35.6842M35.6842 35.6842H42M35.6842 35.6842V29.3684M35.6842 35.6842V42" stroke="white" stroke-width="3" stroke-linecap="round" stroke-linejoin="round"></path>
</svg>