<svg width="100" height="76" viewBox="0 0 100 76" fill="none" xmlns="http://www.w3.org/2000/svg">
<g filter="url(#filter0_d_98_39)">
<path d="M25.5556 10H32.2222V16.6666H38.8889V23.3333H61.1111V16.6666H67.7778V10H74.4444V16.6666H67.7778V23.3333H74.4444V29.9999H81.1112V38.8889H74.4444V58.8888H67.7778V65.5556H54.4445V58.8888H67.7778V47.7776H32.2222V58.8888H25.5556V38.8889H18.8888V52.2221H10V38.8889H18.8888V29.9999H25.5556V23.3333H32.2222V16.6666H25.5556V10ZM81.1112 38.8889H90V52.2221H81.1112V38.8889ZM32.2222 58.8888H45.5555V65.5556H32.2222V58.8888ZM32.2222 29.9999V38.8889H41.111V29.9999H32.2222ZM58.889 29.9999V38.8889H67.7778V29.9999H58.889Z" fill="white"/>
</g>
<defs>
<filter id="filter0_d_98_39" x="0" y="0" width="100" height="75.5557" filterUnits="userSpaceOnUse" color-interpolation-filters="sRGB">
<feFlood flood-opacity="0" result="BackgroundImageFix"/>
<feColorMatrix in="SourceAlpha" type="matrix" values="0 0 0 0 0 0 0 0 0 0 0 0 0 0 0 0 0 0 127 0" result="hardAlpha"/>
<feOffset/>
<feGaussianBlur stdDeviation="5"/>
<feComposite in2="hardAlpha" operator="out"/>
<feColorMatrix type="matrix" values="0 0 0 0 1 0 0 0 0 1 0 0 0 0 1 0 0 0 1 0"/>
<feBlend mode="normal" in2="BackgroundImageFix" result="effect1_dropShadow_98_39"/>
<feBlend mode="normal" in="SourceGraphic" in2="effect1_dropShadow_98_39" result="shape"/>
</filter>
</defs>
</svg>
